<svg id="start_button_Image" data-name="start_button Image" xmlns="http://www.w3.org/2000/svg" viewBox="0 0 325.59 123.38"><defs><style>.cls-1{fill:#f90;}.cls-2{fill:#fcfdfd;}.cls-3{fill:#fefefe;}.cls-4{fill:#fdfefe;}.cls-5{fill:#fdfdfd;}.cls-6{fill:#fafcfc;}.cls-7{fill:#f3f6f6;}.cls-8{fill:#b8baba;}.cls-9{fill:#8ca7a7;}.cls-10{fill:#050404;}.cls-11{fill:#302828;}.cls-12{fill:#fff;}</style></defs><path d="M931.34,921.1a390.34,390.34,0,0,1-77-7,236.9,236.9,0,0,1-43.44-12.54,118.63,118.63,0,0,1-22.82-12,55.71,55.71,0,0,1-13.27-12.2q-13.34-17.85-.06-35.78a55.89,55.89,0,0,1,13.69-12.53c9.92-6.77,21.21-11.68,33.12-15.71a287,287,0,0,1,50.06-11.55,419.88,419.88,0,0,1,79.26-3.64c28.57,1.21,56.58,5.08,83.48,13.29a164.58,164.58,0,0,1,30.13,12.23,86.62,86.62,0,0,1,15,10.07,46.56,46.56,0,0,1,9.08,10q10.11,15.59.07,31.21c-3.52,5.46-8.49,10-14.19,14a116.54,116.54,0,0,1-23.74,12.59c-15.28,6.2-31.43,10.37-48.06,13.4A389.32,389.32,0,0,1,931.34,921.1Z" transform="translate(-768.08 -797.73)"/><path class="cls-1" d="M930.19,915.64c-29.62-.26-58.51-2.64-86.69-9.19a204.69,204.69,0,0,1-37.84-12.29,91.6,91.6,0,0,1-21.11-12.63,42.17,42.17,0,0,1-7.94-8.4q-9.32-13.47-.06-27c3.53-5.12,8.47-9.29,14.09-13A119.12,119.12,0,0,1,813,822a244.74,244.74,0,0,1,45.52-12.31c30-5.4,60.42-6.91,91-5.61,24.94,1.06,49.51,4.15,73.35,10.34a186.24,186.24,0,0,1,34.58,12.25,86.59,86.59,0,0,1,17.94,11.24,41.36,41.36,0,0,1,8.18,8.86c5.65,8.55,5.69,17.12,0,25.69-3.61,5.47-8.78,9.9-14.74,13.77-10.38,6.75-22.16,11.51-34.55,15.4A295.68,295.68,0,0,1,985.61,912,444.28,444.28,0,0,1,930.19,915.64Z" transform="translate(-768.08 -797.73)"/><path d="M927.57,909.23a366.21,366.21,0,0,1-71.18-7.64,191,191,0,0,1-34.33-10.39c-6.16-2.6-12.11-5.48-17.18-9.32a57.23,57.23,0,0,1-8.68-7.82c-7.91-9.18-7.86-19.36-.25-28.7a49.4,49.4,0,0,1,12.73-10.62,111.32,111.32,0,0,1,21.59-9.91c14.21-5,29.07-8.18,44.24-10.53,28.34-4.38,56.94-5.12,85.63-3.57,22.53,1.21,44.71,4.28,66.18,10.19a159.08,159.08,0,0,1,24.89,8.9c5.84,2.72,11.43,5.77,16,9.78a45.56,45.56,0,0,1,6.91,7.14c6.27,8.58,6.17,17.29-.07,25.89-3.45,4.76-8.28,8.53-13.68,11.83a115.53,115.53,0,0,1-23.23,10.48,250.09,250.09,0,0,1-45.52,10.39C972.74,908,953.65,909.26,927.57,909.23Z" transform="translate(-768.08 -797.73)"/><path class="cls-2" d="M801.42,874.89a26.63,26.63,0,0,1-9.81-12.62c-2-5.5-.75-10.66,2.44-15.63,2.93-4.55,7.26-8.21,12.17-11.45a109.28,109.28,0,0,1,21.48-10.61,244.55,244.55,0,0,1,46-12.11,468.67,468.67,0,0,1,99.66-6.12c1.62.07,3.24.24,6.07.46a31.1,31.1,0,0,1-8.81,2.09c-6.1.37-12.2,1-18.3,1-34.72-.14-68.28,5-101.1,13.57a130.46,130.46,0,0,0-35.88,15.2c-1.66,1-3.33,2.07-4.88,3.21-9.79,7.25-13.41,15.93-9.52,26.26.67,1.77,1.6,3.48,2.41,5.21C803.66,874.55,803,875.09,801.42,874.89Z" transform="translate(-768.08 -797.73)"/><path class="cls-3" d="M1001.47,861c2.35,1.39,4.4,2.58,6.42,3.81,1.77,1.07,3.56,2.13,5.26,3.31a8.36,8.36,0,0,1,2,2,1.77,1.77,0,0,1-.86,2.73,10.63,10.63,0,0,1-3.71.35,18,18,0,0,1-7.8-3.44c-2.09-1.42-4.08-3-6-4.47-1.23.35-.85,1.27-.89,2-.1,1.59,0,3.19-.22,4.77a4,4,0,0,1-3.41,3.5,2.82,2.82,0,0,1-3.14-2.2,27.43,27.43,0,0,1-.12-2.87q-.07-9.56-.15-19.11a6.71,6.71,0,0,0-.65-3.68c-.93-1.56-.29-3.07.84-4.35a7.77,7.77,0,0,1,1.38-1.31c5-3.46,10.33-5.58,16.55-4.87a9.45,9.45,0,0,1,7.28,13.58,18.24,18.24,0,0,1-6.67,6.7C1005.66,858.6,1003.72,859.64,1001.47,861Z" transform="translate(-768.08 -797.73)"/><path class="cls-3" d="M982.29,873.18a3,3,0,0,1-1.7,3.05,2.92,2.92,0,0,1-3.57-.18,9.77,9.77,0,0,1-2.4-3.47,76.09,76.09,0,0,1-2.21-8.29c-.28-1.29-.83-2-2.18-2-.47,0-1-.07-1.43-.07-3.37,0-3.75.27-4,3.71a14.58,14.58,0,0,1-1.39,6,3.49,3.49,0,0,1-4.48,1.7A3.14,3.14,0,0,1,956.6,870a98.45,98.45,0,0,1,5.61-25.59,29.4,29.4,0,0,1,3-5.4c1.06-1.6,2.77-2,4.64-1.9a3.25,3.25,0,0,1,2.76,1.62,18.89,18.89,0,0,1,1.5,3,23.68,23.68,0,0,1,1.23,4.11c1.56,8.47,4.13,16.68,6.41,25C982,871.7,982.17,872.64,982.29,873.18Z" transform="translate(-768.08 -797.73)"/><path class="cls-4" d="M906.52,876.79a11,11,0,0,1-10.8-9,3.7,3.7,0,0,1,.78-3.14c1-1.34,2.69-1.43,3.63-.1a23.45,23.45,0,0,1,1.14,2.09c1.58,2.86,3.56,3.86,6.67,3.3a14.27,14.27,0,0,0,2.28-.7c2.14-.79,2.57-2,.94-3.48-2.94-2.69-6-5.29-9.16-7.68a12.87,12.87,0,0,1-4.84-6.91c-1.25-4.3.1-8,3.93-10.33a15.51,15.51,0,0,1,11-2.48c4.44.78,7.28,5.86,5.56,9.88a2.85,2.85,0,0,1-5,.61c-.28-.38-.47-.83-.73-1.22-.57-.88-.45-2.33-1.89-2.49a5.77,5.77,0,0,0-4.93,1.31,2.85,2.85,0,0,0-.28,4.26,61.49,61.49,0,0,0,6.91,5.88,24.11,24.11,0,0,1,6.27,6.51,7.86,7.86,0,0,1-2.31,11.27A15.77,15.77,0,0,1,906.52,876.79Z" transform="translate(-768.08 -797.73)"/><path class="cls-5" d="M934,859.13c-.16-4.14-.3-8.29-.47-12.44-.09-2.21-.24-2.41-2.43-2.51-1.75-.08-3.51.06-5.26,0s-2.3-.64-2.38-2.3a12.18,12.18,0,0,1,0-1.91,2.9,2.9,0,0,1,2.4-2.63,7.65,7.65,0,0,1,1.9-.22A116.92,116.92,0,0,1,949.26,839a14.46,14.46,0,0,1,1.87.41,3.13,3.13,0,0,1,2.16,3.33,3.26,3.26,0,0,1-2.66,3,35.78,35.78,0,0,1-6.21-.14c-4.4-.53-4.31-.31-4.15,3.75.27,6.86.36,13.73.52,20.6a19,19,0,0,1,0,2.39,3.26,3.26,0,0,1-3,3.21c-2.31.39-3.75-.64-3.83-3-.11-3.68-.05-7.35-.06-11,0-.79,0-1.59,0-2.39Z" transform="translate(-768.08 -797.73)"/><path class="cls-5" d="M1030.06,859c-.13-4.31-.3-8.62-.35-12.92a1.6,1.6,0,0,0-1.72-1.79c-1.91-.09-3.83,0-5.75,0s-2.63-.6-2.69-2.49c-.12-3.28.82-4.5,4-4.56a80.57,80.57,0,0,1,9.58.32c4.44.43,8.88,1,13.28,1.77,2.22.37,3.18,1.82,2.91,3.66a3.46,3.46,0,0,1-3.75,2.94c-2.39,0-4.78-.3-7.17-.46-1.83-.11-2.2.26-2.14,2.21.19,7.18.4,14.36.58,21.55a25,25,0,0,1,0,3.35,3.62,3.62,0,0,1-5.41,2.67,3.12,3.12,0,0,1-1.25-1.86A15.43,15.43,0,0,1,1030,870c0-3.67,0-7.35,0-11Z" transform="translate(-768.08 -797.73)"/><path class="cls-6" d="M1063,858.53c1.55,4.21.4,7.8-2.57,10.94a49.84,49.84,0,0,1-3.78,3.63,77.22,77.22,0,0,1-19,11.77,30.18,30.18,0,0,1-5.91,1.62,1.67,1.67,0,0,1-1.37-.91,1.91,1.91,0,0,1,.54-1.64,16.67,16.67,0,0,1,2.87-1.67,111.91,111.91,0,0,0,16.49-10.45,39.17,39.17,0,0,0,11-12.36C1061.74,858.88,1062,857.93,1063,858.53Z" transform="translate(-768.08 -797.73)"/><path class="cls-7" d="M1056.93,848a4.51,4.51,0,0,1-4.55-4.52,4,4,0,0,1,3.91-4,4.91,4.91,0,0,1,4.57,4.63A3.8,3.8,0,0,1,1056.93,848Z" transform="translate(-768.08 -797.73)"/><path class="cls-8" d="M858.62,874.9l1.34-1.36a16.27,16.27,0,0,1,3.6,5.6C861.06,877.85,859.57,876.7,858.62,874.9Z" transform="translate(-768.08 -797.73)"/><path class="cls-9" d="M1063,858.53l-1.7.93a2.83,2.83,0,0,1-.09-.94c.16-.55.39-1.48.7-1.53C1063,856.83,1063.17,857.64,1063,858.53Z" transform="translate(-768.08 -797.73)"/><path class="cls-10" d="M993.53,855.84a65.24,65.24,0,0,0,0-6.8c-.28-2.41,1-3.38,2.92-4.17a14.27,14.27,0,0,1,7.44-.88c2.31.3,3.07,2.21,1.67,4.16a12,12,0,0,1-2.26,2.4A36.43,36.43,0,0,1,993.53,855.84Z" transform="translate(-768.08 -797.73)"/><path class="cls-11" d="M969.17,849.07c.31,1.76.6,3.26.82,4.77.17,1.14-.49,1.65-1.55,1.91-1.48.36-2.09-.14-1.73-1.61s.74-2.71,1.21-4C968.05,849.76,968.57,849.55,969.17,849.07Z" transform="translate(-768.08 -797.73)"/><path class="cls-3" d="M839.19,862.16c2.35,1.39,4.4,2.58,6.43,3.81,1.77,1.08,3.55,2.13,5.25,3.31a8.59,8.59,0,0,1,2,2A1.77,1.77,0,0,1,852,874a10.63,10.63,0,0,1-3.71.35,17.86,17.86,0,0,1-7.8-3.44c-2.09-1.42-4.08-3-6.05-4.46-1.22.34-.84,1.26-.89,2-.09,1.59,0,3.2-.22,4.77a4,4,0,0,1-3.41,3.5,2.82,2.82,0,0,1-3.14-2.2,27.43,27.43,0,0,1-.11-2.87q-.09-9.55-.15-19.11a6.63,6.63,0,0,0-.66-3.68c-.93-1.56-.29-3.07.84-4.35a8.54,8.54,0,0,1,1.38-1.31c5-3.46,10.34-5.58,16.55-4.86a9.45,9.45,0,0,1,7.29,13.57,18.24,18.24,0,0,1-6.67,6.7C843.38,859.8,841.45,860.84,839.19,862.16Z" transform="translate(-768.08 -797.73)"/><path class="cls-10" d="M832.35,860.39a65.49,65.49,0,0,0,0-6.8c-.28-2.41,1-3.38,2.92-4.17a14.25,14.25,0,0,1,7.43-.89c2.31.31,3.08,2.22,1.68,4.17a12,12,0,0,1-2.27,2.39A36.17,36.17,0,0,1,832.35,860.39Z" transform="translate(-768.08 -797.73)"/><path class="cls-12" d="M887.44,843.74a4.71,4.71,0,0,1-1.08-.14,32.18,32.18,0,0,0-12.16-.74c-1.47.19-3,.46-4.68.83q0,3.06-.23,9.08c1-.06,4.29-.34,10-.85q4.89-.43,6.19-.43a3.94,3.94,0,0,1,2.58.86,2.78,2.78,0,0,1,1.08,2.29c0,1.82-1.09,2.86-3.25,3.1-1.36.09-3.4.25-6.11.46q-3.63.38-10.94.9-.18,2.92-.18,4.71c0,3,.2,4.72.59,5.13.19.2,1.26.3,3.22.3,1.06,0,2.65,0,4.78-.07s3.72-.07,4.78-.07a10.8,10.8,0,0,0,1.51-.14,12.41,12.41,0,0,1,1.48-.14,4.24,4.24,0,0,1,2.53.76,2.78,2.78,0,0,1,1.2,2.4c0,1.71-1,2.74-3,3.08a80.12,80.12,0,0,1-10.61.43q-8.32,0-10.86-2-2.79-2.24-2.79-9.66c0-2,.17-5.14.5-9.25s.5-7.2.5-9.24a16.19,16.19,0,0,0-.25-2.38,15.07,15.07,0,0,1-.26-2.38q0-3.49,3.58-3.49a3.93,3.93,0,0,1,2.07.57c2-.44,3.85-.78,5.63-1a41.47,41.47,0,0,1,5-.33,32.34,32.34,0,0,1,10.3,1.33,3,3,0,0,1,2.36,2.92,2.92,2.92,0,0,1-.92,2.12A3.52,3.52,0,0,1,887.44,843.74Z" transform="translate(-768.08 -797.73)"/></svg>