<svg xmlns="http://www.w3.org/2000/svg" viewBox="0 0 36.2 35.69"><defs><style>.cls-1{fill:#020202;}</style></defs><g id="Layer_2" data-name="Layer 2"><g id="Layer_1-2" data-name="Layer 1"><path class="cls-1" d="M17.86,22.78c-3.8,3.6-7.4,6.9-10.9,10.4a6.61,6.61,0,0,1-5.1,2.3,1.92,1.92,0,0,1-1.8-2.3,5.8,5.8,0,0,1,1-2.1c1.7-2.1,3.4-4.3,5.2-6.3,2.1-2.4,4.4-4.6,6.8-7-1.6-1.6-2.9-2.9-4.2-4.3-2.1-2.4-4.3-4.7-6.3-7.2a21,21,0,0,1-2.4-4.1A1.84,1.84,0,0,1,.56.48a1.84,1.84,0,0,1,1.7-.4,21,21,0,0,1,4.1,2.4c2.7,2.2,5.3,4.7,7.9,7,1.2,1.1,2.4,2.1,3.7,3.4,1.2-1,2.2-1.9,3.3-2.8,2.7-2.5,5.4-5,8.2-7.3A18.23,18.23,0,0,1,34,.18c.4-.2,1.2.2,1.7.5a1.17,1.17,0,0,1,.3,1.7,42.1,42.1,0,0,1-2.8,4.5c-2.1,2.6-4.4,5-6.7,7.5-1.1,1.2-2.2,2.3-3.4,3.6,2.4,2.4,4.6,4.7,6.8,7,1.7,1.9,3.3,3.9,4.9,5.9A7.19,7.19,0,0,1,36,33a2,2,0,0,1-1.8,2.7,6.67,6.67,0,0,1-5.1-2.2c-3.2-3.1-6.5-6.2-9.8-9.2C19.16,23.68,18.66,23.38,17.86,22.78Z"/></g></g></svg>